Patient4_TMGait_0pt8_01_right_49_EMG.mot
version=1
nRows=26
nColumns=33
inDegrees=no
endheader
time	1LAddLong	2LGlutMax	3LGlutMed	4LIliopsoas	5LSemiMemb	6LBicFemLong	7LRecFem	8LVastMed	9LVastLat	10LGasMed	11LTibAnt	12lTibPost	13LPeroneusLong	14LSol	15LExtDigLong	16LFlexDigLong	17RAddLong	18RGlutMax	19RGlutMed	20RIliopsoas	21RSemiMemb	22RBicFemLong	23RRecFem	24RVastMed	25RVastLat	26RGasMed	27RTibAnt	28RTibPost	29RPeroneusLong	30RSol	31RExtDigLong	32RFlexDigLong
56.363	-0.029144	0.17716	-0.02594	0.011749	0.063934	0.080872	0.33844	0.008087	-0.000305	-0.03418	0.016632	0.017853	-0.007477	-0.016937	0.075378	0.029449	-0.010223	-0.059509	0.058441	0.11276	-0.25284	0.095062	0.10925	0.050049	0.058136	-0.000916	0.071259	-0.003967	-0.041962	0.031433	0.003052	-0.044403
56.364	0.012512	0.17242	-0.12314	-0.005646	0.027466	0.062408	0.37186	0.004883	-0.005035	0.039368	0.028687	0.017853	0.011292	-0.008545	0.12146	-0.10651	-0.021057	-0.081482	0.048981	0.089111	0.042419	0.018311	0.02594	-0.002441	0.032806	0.018768	0.081177	-0.000916	-0.013428	0.014954	-0.002441	-0.035706
56.365	0.002594	0.20386	-0.04715	-0.005493	-0.005035	0.052795	0.35614	0.00412	-0.019684	0.11627	0.066376	0.026703	0.007782	-0.034637	0.18143	-0.15732	-0.023499	-0.059052	0.079346	0.034637	0.21515	-0.020905	0.041504	-0.042877	0.030212	0.010834	0.046539	-0.005035	-0.012817	0.018005	0.000763	-0.028839
56.366	-0.010223	0.22263	0.049744	0.015717	-0.002136	0.019989	0.36392	0.008392	-0.004272	0.1619	0.00473	0.020294	0.045471	0.015411	0.15778	0.044403	-0.024261	-0.04837	0.12116	0.071106	0.20065	-0.028839	0.038605	0.007172	0.039825	0.019836	0.11231	-0.006714	-0.094452	-0.013885	0.001526	-0.032196
56.367	0.011292	0.18631	-0.03418	0.010071	0.056458	0.012665	0.35309	0.007172	0.011292	0.1619	0.00946	0.016174	0.015869	0.010986	0.14725	0.11276	-0.018921	-0.059509	0.10208	0.018768	0.096741	0.035706	0.049438	-0.030212	0.022888	0.033112	0.1329	-0.003052	-0.11154	-0.028076	0.002289	-0.044861
56.368	-0.002594	0.21393	-0.049438	-0.000916	0.05249	-0.00473	0.35873	0.008392	0.001984	0.13641	0.045624	0.013428	-0.04776	0.009003	0.04425	0.014038	-0.016022	-0.080109	0.023499	-0.18677	-0.10651	0.14969	0.072174	-0.002594	0.042114	0.037994	0.08667	-0.007172	0.004272	0.005493	0	-0.063171
56.369	-0.003052	0.22201	0.004425	-0.004883	0.028992	-0.014801	0.30899	0.004272	0.012054	0.10208	0.14206	0.014343	-0.057526	-0.002136	-0.018463	-0.007172	-0.04837	-0.11978	-0.068817	-0.19272	-0.1358	0.093384	0.065613	-0.015106	0.03952	0.052948	0.094147	-0.00412	0.13092	-0.007629	-0.001831	-0.071869
56.37	-0.007019	0.26718	0.002899	-0.003815	0.022736	0.031433	0.37338	0.006866	-0.015869	0.05188	0.14297	0.015259	-0.066071	0.061035	0.6427	-0.011292	-0.048981	-0.097198	-0.0354	-0.04425	-0.051422	0.071716	0.076447	-0.027008	0.028381	0.048981	0.1297	-0.006104	0.16342	-0.045166	-0.000916	-0.077667
56.371	-0.025024	0.271	-0.032806	0.005798	-0.037689	0.033112	0.3894	0.012512	-0.061493	0.032959	0.10971	0.014648	-0.029602	0.14008	-0.011902	-0.016479	-0.040894	-0.13184	-0.031128	0.066071	-0.063477	0.050201	0.074005	-0.037231	0.036316	0.049744	0.16953	-0.002747	0.14969	-0.02594	-0.001068	-0.075378
56.372	-0.010223	0.28381	-0.008545	0.01236	-0.04715	0.025024	0.31296	0.0177	-0.024109	0.016174	-0.005951	0.014496	-0.010986	0.13107	0.29694	-0.016785	-0.019989	-0.11444	-0.06546	0.04364	0.043488	0.042114	0.085907	-0.046539	0.033569	0.044403	0.21805	-0.003967	0.046234	-0.00885	-0.000458	-0.063171
56.373	-0.009613	0.30624	-0.001373	0.016174	-0.065155	-0.036469	0.28519	0.015717	0.005493	-0.030975	-0.10712	0.016022	0.004425	0.087891	-0.22476	-0.022736	-0.019073	-0.09491	-0.078278	-0.001526	0.0354	0.003204	0.11749	-0.033569	0.032043	0.042267	0.26749	-0.007324	-0.10086	-0.049438	0.001831	-0.051117
56.374	0.015411	0.2771	-0.032806	-0.002899	-0.009766	-0.14801	0.29343	0.006409	0.018921	-0.10605	-0.11536	0.00946	-0.074615	0.09552	-0.31113	0.019531	0.007019	-0.10468	-0.093231	-0.059967	-0.040436	-0.030823	0.050354	-0.072632	0.040436	0.041046	0.29129	-0.004883	-0.20889	-0.042419	0.001068	-0.036163
56.375	0.023651	0.24368	-0.023193	-0.007935	0.026398	-0.10742	0.31265	0.007172	0.018921	-0.16769	-0.059967	0.013885	-0.097961	0.13809	-0.27527	0.037079	0.037384	-0.074768	-0.075989	-0.028076	-0.24246	-0.058289	0.012512	-0.091095	0.050812	0.047607	0.19852	-0.00351	-0.23178	-0.10117	0.001984	-0.030823
56.376	0.003815	0.23148	0.010376	-0.000458	0.058899	-0.057068	0.38773	0.008392	0.027008	-0.20783	-0.016937	0.023499	-0.15396	0.19241	-0.030365	-0.089874	0.046234	-0.054321	-0.042877	-0.051575	-0.39124	-0.038147	-0.001221	-0.063019	0.042572	0.047302	-0.007935	-0.003357	0.044861	-0.11383	0.003052	-0.012512
56.377	0.016479	0.19409	0.017548	0.004883	0.018311	0.080109	0.46219	0.005188	0.065308	-0.22446	0.002899	0.009155	-0.18433	0.22263	0.25803	-0.15213	0.0354	-0.097961	-0.11581	-0.016785	-0.4567	0.011444	0.032501	-0.095062	0.036316	0.031891	-0.041351	-0.003204	0.07782	-0.034943	-0.006866	0.00061
56.378	0.004272	0.18021	-0.013275	0.013123	0.040283	0.23193	0.4895	0.006409	0.02243	-0.16647	-0.029602	0.014038	-0.11658	0.18341	-0.004883	0.062103	0.009918	-0.10208	-0.092773	0.12344	-0.002747	0.022125	0.012207	-0.077515	0.027313	0.021973	-0.065613	-0.00412	0.082092	-0.009308	0.001984	0.004883
56.379	0.003357	0.16281	-0.054932	0.001373	-0.014038	0.18799	0.41382	0.010223	0.007172	-0.070496	-0.007324	0.008392	-0.1329	0.15427	-0.12116	0.36362	-0.026703	-0.076752	-0.13886	0.11658	0.4866	0.030365	-0.005035	-0.033264	0.019073	0.01358	-0.019073	-0.001984	0.040436	-0.058289	0.003662	0.010071
56.38	-0.014343	0.15579	-0.093842	0.003815	-0.071411	0.093994	0.40131	0.014343	0.025024	0.041046	0	0.007477	-0.032501	0.030823	-0.25116	-0.84747	-0.044403	-0.083008	-0.15823	0.033417	0.41885	0.021057	0.019379	0.040283	0.038605	0.009308	0.028992	-0.003662	-0.018158	-0.074158	-0.001984	0.018768
56.381	-0.009918	0.17044	-0.14023	0.005493	-0.005188	0.12268	0.37293	0.011749	0.020599	0.098724	-0.002136	0.009308	0.09613	0.040283	-0.12894	0.085602	-0.047607	-0.10696	-0.15228	-0.005035	0.1889	-0.097809	-0.013885	0.044861	0.035248	0.005188	0.036926	-0.000916	-0.013428	-0.079193	0.001678	0.019836
56.382	-0.008392	0.21759	-0.11169	0.020142	0.028992	0.10117	0.37903	0.014954	0.014343	0.020905	-0.035095	0.003052	0.18082	0.10284	-0.016174	0.19745	-0.033264	-0.10849	-0.17578	-0.035095	0.043945	-0.072937	0.013885	0.027008	0.030212	-0.001526	-0.030823	-0.006561	-0.11963	-0.059662	-0.001526	0.021667
56.383	0.005188	0.27359	-0.17685	0.002289	0.067444	0.08255	0.40726	0.011597	0.00351	0.090942	-0.035248	0.014954	0.094299	0.14526	0.032043	0.85022	-0.019684	-0.11139	-0.13947	0.003357	-0.080872	0.006866	0.048218	-0.00351	0.019684	-0.001984	-0.055389	-0.009003	-0.29465	-0.054932	-0.00061	0.020752
56.384	-0.004272	0.31799	-0.066986	-0.023499	-0.005798	0.074158	0.40543	0.005035	0.005341	0.083466	-0.0177	0.010223	-0.04776	0.1889	0.003357	0.27451	0.025482	-0.12665	-0.16205	0.015106	-0.026855	-0.029755	0.070496	-0.028076	0.029297	-0.003204	-0.005188	-0.003815	-0.76462	-0.088806	-0.001373	0.023041
56.385	0.010071	0.34515	0.07782	0.006256	-0.058746	0.093079	0.41107	0.006409	0.014191	0.11475	0.005035	0.014038	-0.11795	0.20996	0.019836	0.52048	0.016785	-0.12497	-0.14938	-0.009308	-0.050201	-0.043945	0.067596	-0.045013	0.014648	-0.004425	0.14084	-0.00412	0.021515	-0.1239	0.000153	0.020447
56.386	0.020752	0.30411	0.085449	0.010986	0.039673	-0.13519	0.40115	0.010986	0.023956	-0.018463	0.013428	0.013885	-0.033722	-0.026703	0.064697	0.71716	0.001221	-0.099792	-0.16815	0.016632	-0.084534	0.041046	0.095825	-0.043488	0.037842	-0.008392	0.31281	-0.007324	0.83923	-0.088043	0.001221	0.019989
56.387	0.017395	0.27573	-0.008392	-0.003815	0.12405	-0.15717	0.41596	0.005951	0.020294	-0.045319	0.019684	0.012817	0.029755	-0.070801	0.088654	0.23651	0.000305	-0.095367	-0.22995	0.002136	-0.086212	0.25162	0.050507	-0.059052	0.025787	-0.020447	0.12894	-0.00412	0.53116	-0.024567	-0.001678	0.020294
56.388	0.006409	0.25787	-0.05722	-0.006409	0.15106	-0.054779	0.44235	0.004578	0.010986	0.059662	0.026398	0.015106	-0.003052	-0.23132	0.05188	-0.54642	-0.018768	-0.11017	-0.16281	-0.062866	0.016327	0.14999	0.021362	-0.022125	0.048828	-0.010834	0.045166	-0.003967	0.075836	-0.025635	-0.001068	0.025024
